<?xml version="1.0" encoding="UTF-8" standalone="no"?>
<!-- Created with Inkscape (http://www.inkscape.org/) -->

<svg
   version="1.1"
   id="svg2"
   xml:space="preserve"
   width="666.66669"
   height="666.66669"
   viewBox="0 0 666.66669 666.66669"
   sodipodi:docname="4957412_Mobile-login.ai"
   xmlns:inkscape="http://www.inkscape.org/namespaces/inkscape"
   xmlns:sodipodi="http://sodipodi.sourceforge.net/DTD/sodipodi-0.dtd"
   xmlns="http://www.w3.org/2000/svg"
   xmlns:svg="http://www.w3.org/2000/svg"><defs
     id="defs6"><clipPath
       clipPathUnits="userSpaceOnUse"
       id="clipPath16"><path
         d="M 0,500 H 500 V 0 H 0 Z"
         id="path14" /></clipPath><clipPath
       clipPathUnits="userSpaceOnUse"
       id="clipPath28"><path
         d="M 0,500 H 500 V 0 H 0 Z"
         id="path26" /></clipPath><clipPath
       clipPathUnits="userSpaceOnUse"
       id="clipPath40"><path
         d="M 0,500 H 500 V 0 H 0 Z"
         id="path38" /></clipPath><clipPath
       clipPathUnits="userSpaceOnUse"
       id="clipPath52"><path
         d="m 119.954,179.906 h 19.944 v -35.499 h -19.944 z"
         id="path50" /></clipPath><clipPath
       clipPathUnits="userSpaceOnUse"
       id="clipPath108"><path
         d="m 171.461,278.752 h 36.561 v -79.173 h -36.561 z"
         id="path106" /></clipPath><clipPath
       clipPathUnits="userSpaceOnUse"
       id="clipPath144"><path
         d="M 0,500 H 500 V 0 H 0 Z"
         id="path142" /></clipPath><clipPath
       clipPathUnits="userSpaceOnUse"
       id="clipPath256"><path
         d="M 0,500 H 500 V 0 H 0 Z"
         id="path254" /></clipPath><clipPath
       clipPathUnits="userSpaceOnUse"
       id="clipPath352"><path
         d="m 277.898,328.101 h 10.543 v -13.613 h -10.543 z"
         id="path350" /></clipPath><clipPath
       clipPathUnits="userSpaceOnUse"
       id="clipPath368"><path
         d="m 273.134,315.639 h 20.31 v -19.833 h -20.31 z"
         id="path366" /></clipPath><clipPath
       clipPathUnits="userSpaceOnUse"
       id="clipPath388"><path
         d="m 249.999,287.469 h 24.373 v -17.235 h -24.373 z"
         id="path386" /></clipPath><clipPath
       clipPathUnits="userSpaceOnUse"
       id="clipPath408"><path
         d="m 250,297.231 h 64.992 V 251.09 H 250 Z"
         id="path406" /></clipPath><clipPath
       clipPathUnits="userSpaceOnUse"
       id="clipPath428"><path
         d="m 249.999,254.636 h 24.373 v -17.235 h -24.373 z"
         id="path426" /></clipPath><clipPath
       clipPathUnits="userSpaceOnUse"
       id="clipPath448"><path
         d="m 250,264.398 h 64.992 v -46.14 H 250 Z"
         id="path446" /></clipPath><clipPath
       clipPathUnits="userSpaceOnUse"
       id="clipPath468"><path
         d="m 274.372,238.219 h 28.435 v -26.615 h -28.435 z"
         id="path466" /></clipPath><clipPath
       clipPathUnits="userSpaceOnUse"
       id="clipPath484"><path
         d="M 0,500 H 500 V 0 H 0 Z"
         id="path482" /></clipPath><clipPath
       clipPathUnits="userSpaceOnUse"
       id="clipPath532"><path
         d="m 372.145,249.176 h 16.892 v -92.233 h -16.892 z"
         id="path530" /></clipPath><clipPath
       clipPathUnits="userSpaceOnUse"
       id="clipPath552"><path
         d="M 372.145,230.066 H 385.19 V 193.102 H 372.145 Z"
         id="path550" /></clipPath><clipPath
       clipPathUnits="userSpaceOnUse"
       id="clipPath572"><path
         d="M 352.591,249.176 H 387.02 V 152.584 H 352.591 Z"
         id="path570" /></clipPath><clipPath
       clipPathUnits="userSpaceOnUse"
       id="clipPath592"><path
         d="M 356.464,275.799 H 385.19 V 243.991 H 356.464 Z"
         id="path590" /></clipPath><clipPath
       clipPathUnits="userSpaceOnUse"
       id="clipPath616"><path
         d="M 0,500 H 500 V 0 H 0 Z"
         id="path614" /></clipPath></defs><sodipodi:namedview
     id="namedview4"
     pagecolor="#ffffff"
     bordercolor="#666666"
     borderopacity="1.0"
     inkscape:pageshadow="2"
     inkscape:pageopacity="0.0"
     inkscape:pagecheckerboard="0" /><g
     id="g8"
     inkscape:groupmode="layer"
     inkscape:label="4957412_Mobile-login"
     transform="matrix(1.3333333,0,0,-1.3333333,0,666.66667)"><g
       id="g10"><g
         id="g12"
         clip-path="url(#clipPath16)"><g
           id="g18"
           transform="translate(125.2349,110.7568)"><path
             d="m 0,0 c 68.906,-32.842 180.625,-32.843 249.531,-0.001 68.906,32.843 68.906,86.09 0,118.932 C 180.625,151.773 68.905,151.773 -0.001,118.932 -68.907,86.09 -68.907,32.842 0,0"
             style="fill:#f5f5f5;fill-opacity:1;fill-rule:nonzero;stroke:none"
             id="path20" /></g></g></g><g
       id="g22"><g
         id="g24"
         clip-path="url(#clipPath28)"><g
           id="g30"
           transform="translate(358.2822,138.2344)"><path
             d="m 0,0 c 8.974,-4.277 23.522,-4.277 32.496,0 8.974,4.276 8.974,11.211 0,15.488 C 23.522,19.765 8.974,19.765 0,15.488 -8.974,11.211 -8.974,4.276 0,0"
             style="fill:#ececec;fill-opacity:1;fill-rule:nonzero;stroke:none"
             id="path32" /></g></g></g><g
       id="g34"><g
         id="g36"
         clip-path="url(#clipPath40)"><g
           id="g42"
           transform="translate(119.9541,144.4072)"><path
             d="m 0,0 8.124,4.69 c 0,0 6.702,4.926 10.021,14.072 2.511,6.92 2.165,12.184 0.364,14.823 -2.215,3.247 -7.946,2.68 -8.174,-4.166 C 9.887,15.938 5.954,6.612 0,0"
             style="fill:#00dfbf;fill-opacity:1;fill-rule:nonzero;stroke:none"
             id="path44" /></g><g
           id="g46"><g
             id="g48" /><g
             id="g60"><g
               clip-path="url(#clipPath52)"
               opacity="0.199997"
               id="g58"><g
                 transform="translate(119.9541,144.4072)"
                 id="g56"><path
                   d="m 0,0 8.124,4.69 c 0,0 6.702,4.926 10.021,14.072 2.511,6.92 2.165,12.184 0.364,14.823 -2.215,3.247 -7.946,2.68 -8.174,-4.166 C 9.887,15.938 5.954,6.612 0,0"
                   style="fill:#000000;fill-opacity:1;fill-rule:nonzero;stroke:none"
                   id="path54" /></g></g></g></g><g
           id="g62"
           transform="translate(119.9546,143.9072)"><path
             d="m 0,0 c -0.159,0 -0.314,0.075 -0.412,0.216 -0.157,0.226 -0.1,0.538 0.127,0.695 18.797,13.007 15.156,31.128 15.117,31.31 -0.059,0.269 0.113,0.536 0.383,0.593 0.272,0.061 0.536,-0.113 0.594,-0.382 C 15.85,32.244 19.648,13.488 0.284,0.089 0.197,0.028 0.098,0 0,0"
             style="fill:#ffffff;fill-opacity:1;fill-rule:nonzero;stroke:none"
             id="path64" /></g><g
           id="g66"
           transform="translate(103.7061,135.0264)"><path
             d="m 0,0 c 0,0 -2.828,2.303 -2.144,5.42 0.685,3.118 2.509,5.359 -0.627,9.381 -3.136,4.022 -3.946,9.381 -0.258,12.287 2.851,2.247 7.3,-0.938 8.906,5.016 1.172,4.339 0.772,13.949 6.309,17.146 5.536,3.196 8.974,-1.616 8.124,-8.134 -0.761,-5.831 -1.831,-11.445 -1.006,-12.973 1.615,-2.989 4.391,-2.587 4.265,-8.066 -0.118,-5.1 -4.941,-9.322 -4.941,-9.322 z"
             style="fill:#00dfbf;fill-opacity:1;fill-rule:nonzero;stroke:none"
             id="path68" /></g><g
           id="g70"
           transform="translate(112.998,139.8916)"><path
             d="m 0,0 c -0.25,0 -0.465,0.187 -0.496,0.44 -1.431,11.849 1.979,32.307 4.8,38.388 0.116,0.251 0.411,0.362 0.664,0.243 0.251,-0.116 0.36,-0.413 0.243,-0.663 C 2.44,32.433 -0.872,11.886 0.497,0.56 0.53,0.286 0.334,0.037 0.061,0.004 0.04,0.001 0.02,0 0,0"
             style="fill:#ffffff;fill-opacity:1;fill-rule:nonzero;stroke:none"
             id="path72" /></g><g
           id="g74"
           transform="translate(112.7275,149.1162)"><path
             d="m 0,0 c -0.074,0 -0.148,0.017 -0.219,0.051 -3.47,1.696 -5.669,7.721 -5.761,7.977 -0.094,0.26 0.041,0.546 0.301,0.64 0.26,0.093 0.546,-0.041 0.64,-0.302 C -5.018,8.308 -2.885,2.468 0.22,0.949 0.468,0.828 0.571,0.528 0.45,0.28 0.363,0.103 0.185,0 0,0"
             style="fill:#ffffff;fill-opacity:1;fill-rule:nonzero;stroke:none"
             id="path76" /></g><g
           id="g78"
           transform="translate(112.6709,145.123)"><path
             d="m 0,0 c -0.198,0 -0.386,0.119 -0.464,0.314 -0.103,0.256 0.022,0.547 0.278,0.65 5.839,2.34 9.479,9.298 9.515,9.368 0.127,0.245 0.428,0.343 0.673,0.215 0.246,-0.126 0.342,-0.428 0.216,-0.674 C 10.063,9.574 6.368,2.513 0.186,0.036 0.125,0.012 0.062,0 0,0"
             style="fill:#ffffff;fill-opacity:1;fill-rule:nonzero;stroke:none"
             id="path80" /></g><g
           id="g82"
           transform="translate(316.8018,198.917)"><path
             d="m 0,0 c 0,0 -4.373,7.072 -4.795,14.771 -0.422,7.7 1.268,10.895 3.586,11.813 2.318,0.917 2.494,-1.908 3.691,-3.583 1.199,-1.675 3.621,-0.716 4.515,4.491 0.895,5.206 4.178,14.03 10.969,15.714 7.501,1.858 3.477,-6.94 1.595,-10.373 -1.884,-3.433 -3.352,-8.108 -2.11,-9.381 1.241,-1.273 3.166,1.079 5.013,-1.101 2.229,-2.632 -4.7,-12.095 -8.677,-14.391 z"
             style="fill:#00dfbf;fill-opacity:1;fill-rule:nonzero;stroke:none"
             id="path84" /></g><g
           id="g86"
           transform="translate(322.792,201.8945)"><path
             d="m 0,0 c -0.009,0 -0.018,0 -0.026,0.001 -0.277,0.015 -0.488,0.25 -0.473,0.525 1.101,20.477 11.094,34.659 11.195,34.799 0.161,0.226 0.474,0.277 0.698,0.115 0.224,-0.16 0.276,-0.472 0.115,-0.697 C 11.41,34.604 1.584,20.646 0.499,0.474 0.485,0.207 0.265,0 0,0"
             style="fill:#ffffff;fill-opacity:1;fill-rule:nonzero;stroke:none"
             id="path88" /></g><g
           id="g90"
           transform="translate(323.3633,207.7979)"><path
             d="m 0,0 c -0.082,0 -0.165,0.021 -0.242,0.062 -2.801,1.55 -4.352,6.149 -4.416,6.344 -0.087,0.262 0.054,0.545 0.317,0.632 0.261,0.09 0.546,-0.056 0.632,-0.317 C -3.694,6.677 -2.216,2.297 0.242,0.937 0.483,0.804 0.571,0.5 0.437,0.258 0.347,0.093 0.176,0 0,0"
             style="fill:#ffffff;fill-opacity:1;fill-rule:nonzero;stroke:none"
             id="path92" /></g><g
           id="g94"
           transform="translate(323.8535,210.8291)"><path
             d="m 0,0 c -0.224,0 -0.428,0.15 -0.484,0.377 -0.069,0.269 0.093,0.54 0.361,0.607 C 7.095,2.81 9.595,6.593 9.619,6.63 9.769,6.862 10.078,6.929 10.31,6.782 10.542,6.634 10.611,6.326 10.463,6.094 10.356,5.925 7.759,1.946 0.123,0.016 0.081,0.005 0.04,0 0,0"
             style="fill:#ffffff;fill-opacity:1;fill-rule:nonzero;stroke:none"
             id="path96" /></g><g
           id="g98"
           transform="translate(208.022,214.4648)"><path
             d="m 0,0 c 0,0 -9.589,2.338 -10.088,20.293 -0.539,19.381 2.349,41.991 -8.96,43.83 -11.309,1.839 -17.655,-12.029 -17.51,-28.143 0.127,-14.149 5.825,-44.849 36.557,-50.866 z"
             style="fill:#00dfbf;fill-opacity:1;fill-rule:nonzero;stroke:none"
             id="path100" /></g><g
           id="g102"><g
             id="g104" /><g
             id="g116"><g
               clip-path="url(#clipPath108)"
               opacity="0.199997"
               id="g114"><g
                 transform="translate(208.022,214.4648)"
                 id="g112"><path
                   d="m 0,0 c 0,0 -9.589,2.338 -10.088,20.293 -0.539,19.381 2.349,41.991 -8.96,43.83 -11.309,1.839 -17.655,-12.029 -17.51,-28.143 0.127,-14.149 5.825,-44.849 36.557,-50.866 z"
                   style="fill:#000000;fill-opacity:1;fill-rule:nonzero;stroke:none"
                   id="path110" /></g></g></g></g><g
           id="g118"
           transform="translate(208.0215,201.4248)"><path
             d="m 0,0 c -0.03,0 -0.06,0.003 -0.09,0.008 -6.915,1.26 -12.543,5.063 -16.728,11.306 -12.425,18.535 -8.51,53.13 -7.225,59.174 0.058,0.27 0.322,0.441 0.593,0.385 0.27,-0.058 0.443,-0.323 0.386,-0.593 -1.271,-5.976 -5.153,-40.165 7.076,-58.409 C -11.959,5.861 -6.55,2.201 0.089,0.992 0.361,0.942 0.541,0.682 0.491,0.41 0.447,0.169 0.237,0 0,0"
             style="fill:#ffffff;fill-opacity:1;fill-rule:nonzero;stroke:none"
             id="path120" /></g><g
           id="g122"
           transform="translate(208.0225,155.3301)"><path
             d="m 0,0 c -9.915,-1.344 -26.019,-1.32 -35.295,5.996 -9.276,7.317 -7.347,13.622 -3.778,16.252 3.568,2.631 6.667,5.637 0.529,11.474 -6.139,5.837 -16.006,15.216 -19.197,29.289 -3.191,14.071 -1.619,22.865 4.659,25.798 6.094,2.844 7.698,-1.675 11.428,-10.996 3.729,-9.323 12.122,-1.331 19.298,-4.241 7.175,-2.909 6.894,-8.67 7.346,-13.622 0.452,-4.951 2.822,-6.32 6.885,-6.32 4.063,0 8.123,-2.345 8.124,-7.035 z"
             style="fill:#00dfbf;fill-opacity:1;fill-rule:nonzero;stroke:none"
             id="path124" /></g><g
           id="g126"
           transform="translate(208.0225,171.667)"><path
             d="m 0,0 c -0.044,0 -0.09,0.006 -0.135,0.019 -0.429,0.12 -10.682,3.104 -25.606,16.813 -15.898,14.604 -23.404,36.499 -23.478,36.718 -0.088,0.262 0.052,0.546 0.314,0.634 0.262,0.086 0.546,-0.053 0.634,-0.314 0.073,-0.218 7.502,-21.876 23.207,-36.302 C -10.34,4.043 0.032,1.011 0.135,0.981 0.401,0.906 0.556,0.631 0.481,0.364 0.419,0.145 0.219,0 0,0"
             style="fill:#ffffff;fill-opacity:1;fill-rule:nonzero;stroke:none"
             id="path128" /></g><g
           id="g130"
           transform="translate(186.4336,185.0078)"><path
             d="m 0,0 c -0.2,0 -0.389,0.121 -0.466,0.318 -3.209,8.247 -3.936,25.876 -3.965,26.622 -0.011,0.276 0.204,0.508 0.48,0.52 0.256,-0.003 0.508,-0.204 0.519,-0.481 C -3.425,26.799 -2.682,8.771 0.466,0.682 0.566,0.424 0.438,0.134 0.181,0.034 0.122,0.011 0.061,0 0,0"
             style="fill:#ffffff;fill-opacity:1;fill-rule:nonzero;stroke:none"
             id="path132" /></g><g
           id="g134"
           transform="translate(186.3496,173.1475)"><path
             d="m 0,0 c -1.554,0 -2.629,0.122 -2.759,0.138 -0.274,0.032 -0.47,0.281 -0.437,0.555 0.032,0.274 0.279,0.477 0.555,0.437 0.093,-0.009 9.397,-1.061 13.671,3.297 0.192,0.199 0.51,0.199 0.707,0.008 0.197,-0.194 0.2,-0.511 0.007,-0.707 C 8.616,0.538 3.258,0 0,0"
             style="fill:#ffffff;fill-opacity:1;fill-rule:nonzero;stroke:none"
             id="path136" /></g></g></g><g
       id="g138"><g
         id="g140"
         clip-path="url(#clipPath144)"><g
           id="g146"
           transform="translate(161.0156,341.9561)"><path
             d="m 0,0 c -4.554,-3.58 -5.941,-4.361 -6.765,0.422 -0.824,4.783 1.84,12.077 6.394,15.657 4.555,3.581 6.302,3.848 7.126,-0.935 C 7.579,10.361 4.554,3.581 0,0 m 18.133,20.55 -1.074,6.235 -5.563,-3.661 c -0.558,1.065 -1.274,1.921 -2.116,2.568 l 2.662,7.201 -4.956,1.108 -3.662,-6.977 C 2.21,26.837 0.93,26.428 -0.391,25.782 l -1.585,5.259 -5.936,-4.667 0.389,-6.2 c -1.202,-1.336 -2.301,-2.799 -3.282,-4.337 l -4.905,0.242 -3.438,-7.708 4.211,-1.797 c -0.444,-1.658 -0.73,-3.303 -0.832,-4.885 l -5.346,-4.917 1.073,-6.235 5.563,3.661 c 0.558,-1.066 1.274,-1.922 2.116,-2.568 l -2.662,-7.201 4.957,-1.109 5.238,5.108 c 1.214,0.186 0.918,2.466 2.238,3.112 l 1.585,-5.259 5.936,4.667 -0.153,2.438 c 1.202,1.337 5.739,4.286 6.72,5.824 l 1.231,2.033 3.439,7.708 -1.603,2.903 -1.777,3.779 z"
             style="fill:#e1e1e1;fill-opacity:1;fill-rule:nonzero;stroke:none"
             id="path148" /></g><g
           id="g150"
           transform="translate(168.1016,375.9575)"><path
             d="m 0,0 6.485,-3.74 -3.662,-6.977 -6.485,3.739 z"
             style="fill:#f5f5f5;fill-opacity:1;fill-rule:nonzero;stroke:none"
             id="path152" /></g><g
           id="g154"
           transform="translate(184.5596,365.001)"><path
             d="m 0,0 -5.563,-3.661 -6.485,3.74 5.563,3.661 z"
             style="fill:#f5f5f5;fill-opacity:1;fill-rule:nonzero;stroke:none"
             id="path156" /></g><g
           id="g158"
           transform="translate(183.6665,347.1675)"><path
             d="m 0,0 -4.212,1.796 -6.485,3.74 4.212,-1.796 z"
             style="fill:#e1e1e1;fill-opacity:1;fill-rule:nonzero;stroke:none"
             id="path160" /></g><g
           id="g162"
           transform="translate(145.9902,326.3848)"><path
             d="M 0,0 6.485,-3.74 9.147,3.461 2.663,7.201 Z"
             style="fill:#e1e1e1;fill-opacity:1;fill-rule:nonzero;stroke:none"
             id="path164" /></g><g
           id="g166"
           transform="translate(166.4937,324.4971)"><path
             d="M 0,0 -6.485,3.74 -8.07,8.999 -1.585,5.259 Z"
             style="fill:#e1e1e1;fill-opacity:1;fill-rule:nonzero;stroke:none"
             id="path168" /></g><g
           id="g170"
           transform="translate(167.501,338.2163)"><path
             d="m 0,0 c -4.554,-3.581 -8.914,-2.605 -9.738,2.178 -0.824,4.783 2.201,11.563 6.755,15.143 4.554,3.581 8.914,2.606 9.737,-2.177 C 7.578,10.361 4.554,3.581 0,0 m 18.132,20.55 -1.073,6.235 -5.563,-3.661 c -0.558,1.065 -1.274,1.921 -2.116,2.568 l 2.662,7.201 -4.957,1.108 -3.661,-6.977 C 2.21,26.837 0.929,26.428 -0.391,25.782 l -1.585,5.259 -5.936,-4.667 0.389,-6.2 c -1.202,-1.336 -2.301,-2.799 -3.282,-4.337 l -4.905,0.242 -3.438,-7.708 4.211,-1.797 c -0.445,-1.658 -0.73,-3.303 -0.832,-4.886 l -5.347,-4.916 1.074,-6.235 5.563,3.661 c 0.558,-1.066 1.274,-1.922 2.116,-2.569 l -2.662,-7.2 4.956,-1.109 3.662,6.978 c 1.214,0.186 2.494,0.596 3.815,1.242 l 1.585,-5.259 5.936,4.667 -0.389,6.199 c 1.202,1.337 2.301,2.799 3.282,4.338 l 4.905,-0.242 3.439,7.708 -4.212,1.797 c 0.445,1.658 0.731,3.302 0.831,4.885 z"
             style="fill:#ececec;fill-opacity:1;fill-rule:nonzero;stroke:none"
             id="path172" /></g><g
           id="g174"
           transform="translate(165.5254,369.2573)"><path
             d="m 0,0 -6.485,3.74 -5.936,-4.667 6.484,-3.74 z"
             style="fill:#f5f5f5;fill-opacity:1;fill-rule:nonzero;stroke:none"
             id="path176" /></g><g
           id="g178"
           transform="translate(153.104,368.3301)"><path
             d="M 0,0 0.389,-6.2 6.874,-9.939 6.485,-3.74 Z"
             style="fill:#e1e1e1;fill-opacity:1;fill-rule:nonzero;stroke:none"
             id="path180" /></g><g
           id="g182"
           transform="translate(156.6958,354.0532)"><path
             d="m 0,0 -6.485,3.74 -4.905,0.242 6.485,-3.74 z"
             style="fill:#f5f5f5;fill-opacity:1;fill-rule:nonzero;stroke:none"
             id="path184" /></g><g
           id="g186"
           transform="translate(145.3057,358.0352)"><path
             d="m 0,0 -3.438,-7.708 6.485,-3.74 3.438,7.708 z"
             style="fill:#e1e1e1;fill-opacity:1;fill-rule:nonzero;stroke:none"
             id="path188" /></g><g
           id="g190"
           transform="translate(151.7324,339.9048)"><path
             d="m 0,0 -6.485,3.74 -5.347,-4.917 6.485,-3.74 z"
             style="fill:#f5f5f5;fill-opacity:1;fill-rule:nonzero;stroke:none"
             id="path192" /></g><g
           id="g194"
           transform="translate(147.459,328.7534)"><path
             d="m 0,0 -6.485,3.74 -1.074,6.235 6.485,-3.74 z"
             style="fill:#e1e1e1;fill-opacity:1;fill-rule:nonzero;stroke:none"
             id="path196" /></g><g
           id="g198"
           transform="translate(174.5864,372.2178)"><path
             d="M 0,0 -6.485,3.74 -1.528,2.631 4.957,-1.108 Z"
             style="fill:#f5f5f5;fill-opacity:1;fill-rule:nonzero;stroke:none"
             id="path200" /></g><g
           id="g202"
           transform="translate(124.1621,367.5347)"><path
             d="m 0,0 c -6.187,-3.572 -10.033,-1.038 -10.033,6.106 0,7.144 5.113,15.896 11.301,19.468 6.187,3.572 9.935,0.974 9.935,-6.17 C 11.203,12.259 6.187,3.572 0,0 m 25.931,23.25 v 9.313 L 18.52,29.222 c -0.447,1.72 -1.128,3.195 -2.002,4.411 l 4.669,9.415 -5.703,3.292 -5.818,-8.751 C 8.175,37.738 6.558,37.59 4.845,37.117 L 4.032,45.206 -4.032,40.55 -4.845,31.523 c -1.713,-1.505 -3.33,-3.225 -4.821,-5.095 l -5.818,2.032 -5.703,-9.877 4.669,-4.023 c -0.874,-2.226 -1.555,-4.487 -2.002,-6.723 l -7.411,-5.216 v -9.312 l 7.411,3.34 c 0.447,-1.719 1.128,-3.194 2.002,-4.41 l -4.669,-9.415 5.703,-3.293 5.818,8.752 c 1.491,-0.149 3.108,-0.002 4.821,0.471 l 0.813,-8.088 8.064,4.656 0.813,9.027 c 2.403,0.801 4.974,2.662 6.465,4.532 l 4.174,-1.47 5.703,9.877 -3.499,3.015 c 0.874,2.226 0.967,5.785 0.832,7.731 z"
             style="fill:#e1e1e1;fill-opacity:1;fill-rule:nonzero;stroke:none"
             id="path204" /></g><g
           id="g206"
           transform="translate(146.1318,410.1353)"><path
             d="m 0,0 -6.485,3.74 -5.819,-8.752 6.485,-3.739 z"
             style="fill:#f5f5f5;fill-opacity:1;fill-rule:nonzero;stroke:none"
             id="path208" /></g><g
           id="g210"
           transform="translate(156.5781,396.3579)"><path
             d="m 0,0 -6.485,3.74 -7.411,-3.341 6.485,-3.74 z"
             style="fill:#f5f5f5;fill-opacity:1;fill-rule:nonzero;stroke:none"
             id="path212" /></g><g
           id="g214"
           transform="translate(126.6152,344.4604)"><path
             d="m 0,0 -6.485,3.74 -0.813,8.089 6.486,-3.74 z"
             style="fill:#e1e1e1;fill-opacity:1;fill-rule:nonzero;stroke:none"
             id="path216" /></g><g
           id="g218"
           transform="translate(102.9751,350.3584)"><path
             d="m 0,0 6.485,-3.74 4.669,9.415 -6.485,3.74 z"
             style="fill:#e1e1e1;fill-opacity:1;fill-rule:nonzero;stroke:none"
             id="path220" /></g><g
           id="g222"
           transform="translate(130.6475,363.7949)"><path
             d="m 0,0 c -6.187,-3.572 -11.203,-0.676 -11.203,6.468 0,7.144 5.016,15.831 11.203,19.404 6.187,3.571 11.203,0.676 11.203,-6.468 C 11.203,12.259 6.187,3.572 0,0 m 25.931,23.25 v 9.313 L 18.52,29.222 c -0.447,1.72 -1.128,3.195 -2.002,4.411 l 4.669,9.415 -5.703,3.292 -5.819,-8.751 C 8.175,37.738 6.558,37.59 4.845,37.117 L 4.032,45.206 -4.032,40.55 -4.845,31.523 c -1.713,-1.505 -3.33,-3.225 -4.821,-5.095 l -5.819,2.032 -5.702,-9.877 4.669,-4.023 c -0.874,-2.226 -1.555,-4.487 -2.002,-6.723 l -7.411,-5.216 v -9.312 l 7.411,3.34 c 0.447,-1.719 1.128,-3.194 2.002,-4.411 l -4.669,-9.415 5.702,-3.292 5.819,8.751 c 1.491,-0.148 3.108,-10e-4 4.821,0.472 l 0.813,-8.088 8.064,4.656 0.813,9.027 c 1.713,1.504 3.33,3.224 4.82,5.094 l 5.819,-2.032 5.703,9.877 -4.669,4.024 c 0.874,2.226 1.555,4.486 2.002,6.722 z"
             style="fill:#ececec;fill-opacity:1;fill-rule:nonzero;stroke:none"
             id="path224" /></g><g
           id="g226"
           transform="translate(114.4966,393.9629)"><path
             d="m 0,0 6.485,-3.74 -5.819,2.032 -6.485,3.74 z"
             style="fill:#f0f0f0;fill-opacity:1;fill-rule:nonzero;stroke:none"
             id="path228" /></g><g
           id="g230"
           transform="translate(109.46,382.3779)"><path
             d="m 0,0 -6.485,3.74 5.703,9.877 6.485,-3.74 z"
             style="fill:#f5f5f5;fill-opacity:1;fill-rule:nonzero;stroke:none"
             id="path232" /></g><g
           id="g234"
           transform="translate(102.9751,386.1182)"><path
             d="m 0,0 6.485,-3.74 4.669,-4.024 -6.485,3.741 z"
             style="fill:#e1e1e1;fill-opacity:1;fill-rule:nonzero;stroke:none"
             id="path236" /></g><g
           id="g238"
           transform="translate(105.6426,375.3721)"><path
             d="m 0,0 6.485,-3.74 -7.411,-5.217 -6.485,3.74 z"
             style="fill:#f5f5f5;fill-opacity:1;fill-rule:nonzero;stroke:none"
             id="path240" /></g><g
           id="g242"
           transform="translate(98.2314,370.1553)"><path
             d="m 0,0 6.485,-3.74 v -9.312 L 0,-9.312 Z"
             style="fill:#e1e1e1;fill-opacity:1;fill-rule:nonzero;stroke:none"
             id="path244" /></g><g
           id="g246"
           transform="translate(134.6797,409.0005)"><path
             d="m 0,0 -6.485,3.74 -8.065,-4.656 6.486,-3.74 z"
             style="fill:#f5f5f5;fill-opacity:1;fill-rule:nonzero;stroke:none"
             id="path248" /></g></g></g><g
       id="g250"><g
         id="g252"
         clip-path="url(#clipPath256)"><g
           id="g258"
           transform="translate(217.8784,141.9482)"><path
             d="m 0,0 94.025,54.285 c 0.956,0.553 0.957,1.448 10e-4,2.002 l -8.698,5.032 c -0.956,0.554 -2.507,0.555 -3.464,0.002 L -12.186,7.036 c -0.957,-0.553 -0.957,-1.448 0,-2 L -3.464,0 C -2.507,-0.552 -0.957,-0.552 0,0"
             style="fill:#e1e1e1;fill-opacity:1;fill-rule:nonzero;stroke:none"
             id="path260" /></g><g
           id="g262"
           transform="translate(309.3037,405.8037)"><path
             d="m 0,0 -84.767,-48.94 c -2.391,-1.381 -4.33,-4.739 -4.33,-7.5 v -201.07 c 0,-2.761 1.939,-3.881 4.33,-2.5 l 84.768,48.94 c 2.392,1.381 4.33,4.739 4.33,7.5 L 4.33,-2.5 C 4.33,0.261 2.392,1.381 0,0"
             style="fill:#375a64;fill-opacity:1;fill-rule:nonzero;stroke:none"
             id="path264" /></g><g
           id="g266"
           transform="translate(224.5371,356.8638)"><path
             d="m 0,0 84.767,48.94 c 2.138,1.234 3.91,0.466 4.262,-1.684 -0.325,2.577 -2.101,5.436 -4.262,6.684 l -3.526,2.036 c -2.391,1.38 -6.269,1.38 -8.661,0 L -12.186,7.036 C -13.382,6.345 -14.464,5.161 -15.248,3.803 L -3.062,-3.232 C -2.278,-1.875 -1.195,-0.69 0,0"
             style="fill:#2b454e;fill-opacity:1;fill-rule:nonzero;stroke:none"
             id="path268" /></g><g
           id="g270"
           transform="translate(208.0225,155.3301)"><path
             d="m 0,0 c 0,-2.762 1.938,-6.12 4.33,-7.5 l 3.526,-2.036 c 2.162,-1.248 5.529,-1.357 7.924,-0.348 -2.041,-0.774 -3.595,0.376 -3.595,2.848 v 201.07 c 0,1.381 0.484,2.91 1.268,4.268 l -12.186,7.035 c -0.784,-1.357 -1.268,-2.887 -1.268,-4.268 z"
             style="fill:#1a2e35;fill-opacity:1;fill-rule:nonzero;stroke:none"
             id="path272" /></g><g
           id="g274"
           transform="translate(226.8677,330.0664)"><path
             d="m 0,0 80.106,46.25 c 1.436,0.828 2.599,0.156 2.599,-1.5 l 0.001,-148.785 c 0,-1.657 -1.164,-3.672 -2.599,-4.5 L 0,-154.785 c -1.434,-0.828 -2.598,-0.156 -2.598,1.5 V -4.5 c 0,1.657 1.163,3.671 2.598,4.5"
             style="fill:#ffffff;fill-opacity:1;fill-rule:nonzero;stroke:none"
             id="path276" /></g><g
           id="g278"
           transform="translate(266.9209,373.7061)"><path
             d="m 0,0 c -0.841,-0.486 -1.523,-1.667 -1.523,-2.638 0,-0.972 0.682,-1.365 1.523,-0.88 0.842,0.486 1.523,1.667 1.523,2.639 C 1.523,0.092 0.842,0.486 0,0"
             style="fill:#2b454e;fill-opacity:1;fill-rule:nonzero;stroke:none"
             id="path280" /></g><g
           id="g282"
           transform="translate(266.9229,191.2617)"><path
             d="m 0,0 c -3.322,-1.918 -6.015,-6.582 -6.015,-10.418 0,-3.835 2.693,-5.39 6.015,-3.472 3.321,1.917 6.014,6.581 6.014,10.417 C 6.014,0.362 3.321,1.917 0,0"
             style="fill:#2b454e;fill-opacity:1;fill-rule:nonzero;stroke:none"
             id="path284" /></g><g
           id="g286"
           transform="translate(252.5332,358.229)"><path
             d="m 0,0 c -1.682,-0.972 -3.046,-3.334 -3.046,-5.277 0,-1.943 1.364,-2.73 3.047,-1.759 1.683,0.972 3.046,3.334 3.046,5.277 C 3.047,0.184 1.683,0.971 0,0"
             style="fill:#2b454e;fill-opacity:1;fill-rule:nonzero;stroke:none"
             id="path288" /></g><g
           id="g290"
           transform="translate(259.9824,358.8877)"><path
             d="m 0,0 c 0,-1.295 0.97,-1.786 2.165,-1.095 l 20.043,11.571 c 1.195,0.691 2.165,2.3 2.165,3.595 -0.001,1.296 -0.97,1.786 -2.166,1.096 L 2.165,3.595 C 0.97,2.905 0,1.295 0,0"
             style="fill:#2b454e;fill-opacity:1;fill-rule:nonzero;stroke:none"
             id="path292" /></g><g
           id="g294"
           transform="translate(214.7632,323.6279)"><path
             d="M 0,0 C 1.346,-0.777 2.437,-2.667 2.437,-4.222 2.437,-5.776 1.346,-6.406 0,-5.628 -1.346,-4.852 -2.438,-2.961 -2.438,-1.407 -2.438,0.147 -1.346,0.777 0,0"
             style="fill:#2b454e;fill-opacity:1;fill-rule:nonzero;stroke:none"
             id="path296" /></g><g
           id="g298"
           transform="translate(214.7632,304.8516)"><path
             d="M 0,0 C 1.346,-0.777 2.437,-2.667 2.437,-4.222 2.437,-5.776 1.346,-6.406 0,-5.629 -1.346,-4.852 -2.438,-2.962 -2.438,-1.407 -2.438,0.147 -1.346,0.777 0,0"
             style="fill:#2b454e;fill-opacity:1;fill-rule:nonzero;stroke:none"
             id="path300" /></g><g
           id="g302"
           transform="translate(214.0103,323.2515)"><path
             d="M 0,0 C 1.346,-0.777 2.438,-2.667 2.438,-4.221 2.438,-5.775 1.346,-6.406 0,-5.628 -1.346,-4.851 -2.437,-2.961 -2.437,-1.407 -2.437,0.147 -1.346,0.777 0,0"
             style="fill:#375a64;fill-opacity:1;fill-rule:nonzero;stroke:none"
             id="path304" /></g><g
           id="g306"
           transform="translate(214.0103,304.4751)"><path
             d="M 0,0 C 1.346,-0.777 2.438,-2.667 2.438,-4.222 2.438,-5.776 1.346,-6.406 0,-5.629 -1.346,-4.852 -2.437,-2.961 -2.437,-1.407 -2.437,0.147 -1.346,0.777 0,0"
             style="fill:#375a64;fill-opacity:1;fill-rule:nonzero;stroke:none"
             id="path308" /></g><g
           id="g310"
           transform="translate(325.8213,370.1113)"><path
             d="m 0,0 c 0,1.657 -1.163,2.328 -2.599,1.5 l -9.588,-5.536 -70.518,-40.714 c -1.435,-0.828 -2.598,-2.843 -2.598,-4.5 l 10e-4,-148.784 c 0,-1.657 1.163,-2.328 2.598,-1.5 l 70.543,40.728 9.563,5.521 c 1.435,0.829 2.599,2.844 2.599,4.5 z"
             style="fill:#ffffff;fill-opacity:1;fill-rule:nonzero;stroke:none"
             id="path312" /></g><g
           id="g314"
           transform="translate(325.8213,370.1113)"><path
             d="m 0,0 c 0,1.657 -1.163,2.328 -2.599,1.5 l -9.588,-5.536 -70.518,-40.714 c -1.435,-0.828 -2.598,-2.843 -2.598,-4.5 l 10e-4,-148.784 c 0,-1.657 1.163,-2.328 2.598,-1.5 l 70.543,40.728 9.563,5.521 c 1.435,0.829 2.599,2.844 2.599,4.5 z"
             style="fill:none;stroke:#00dfbf;stroke-width:1;stroke-linecap:butt;stroke-linejoin:miter;stroke-miterlimit:10;stroke-dasharray:none;stroke-opacity:1"
             id="path316" /></g><g
           id="g318"
           transform="translate(241.9561,169.7207)"><path
             d="m 0,0 c -0.333,0 -0.646,0.08 -0.926,0.241 -0.652,0.377 -1.011,1.128 -1.011,2.115 v 148.785 c 0,1.844 1.25,4.011 2.848,4.933 l 70.518,40.714 0.5,-0.866 -70.518,-40.714 c -1.273,-0.735 -2.348,-2.597 -2.348,-4.067 V 2.356 c 0,-0.606 0.187,-1.061 0.511,-1.249 0.325,-0.187 0.812,-0.12 1.337,0.182 l 70.543,40.729 0.5,-0.866 L 1.411,0.424 C 0.923,0.142 0.443,0 0,0"
             style="fill:#00dfbf;fill-opacity:1;fill-rule:nonzero;stroke:none"
             id="path320" /></g><g
           id="g322"
           transform="translate(241.9561,169.7207)"><path
             d="m 0,0 c -0.333,0 -0.646,0.08 -0.926,0.241 -0.652,0.377 -1.011,1.128 -1.011,2.115 v 148.785 c 0,1.844 1.25,4.011 2.848,4.933 l 70.518,40.714 0.5,-0.866 -70.518,-40.714 c -1.273,-0.735 -2.348,-2.597 -2.348,-4.067 V 2.356 c 0,-0.606 0.187,-1.061 0.511,-1.249 0.325,-0.187 0.812,-0.12 1.337,0.182 l 70.543,40.729 0.5,-0.866 L 1.411,0.424 C 0.923,0.142 0.443,0 0,0 Z"
             style="fill:none;stroke:#00dfbf;stroke-width:1;stroke-linecap:butt;stroke-linejoin:miter;stroke-miterlimit:10;stroke-dasharray:none;stroke-opacity:1"
             id="path324" /></g><g
           id="g326"
           transform="translate(313.9102,210.873)"><path
             d="m 0,0 -0.5,0.865 9.563,5.521 c 1.274,0.736 2.349,2.598 2.349,4.067 l -0.001,148.785 c 0,0.606 -0.186,1.061 -0.511,1.249 -0.323,0.187 -0.811,0.122 -1.337,-0.182 l -9.588,-5.535 -0.5,0.866 9.588,5.535 c 0.854,0.493 1.684,0.559 2.337,0.182 0.652,-0.376 1.011,-1.127 1.011,-2.115 L 12.412,10.453 c 0,-1.843 -1.251,-4.01 -2.849,-4.932 z"
             style="fill:#00dfbf;fill-opacity:1;fill-rule:nonzero;stroke:none"
             id="path328" /></g><g
           id="g330"
           transform="translate(313.9102,210.873)"><path
             d="m 0,0 -0.5,0.865 9.563,5.521 c 1.274,0.736 2.349,2.598 2.349,4.067 l -0.001,148.785 c 0,0.606 -0.186,1.061 -0.511,1.249 -0.323,0.187 -0.811,0.122 -1.337,-0.182 l -9.588,-5.535 -0.5,0.866 9.588,5.535 c 0.854,0.493 1.684,0.559 2.337,0.182 0.652,-0.376 1.011,-1.127 1.011,-2.115 L 12.412,10.453 c 0,-1.843 -1.251,-4.01 -2.849,-4.932 z"
             style="fill:none;stroke:#00dfbf;stroke-width:1;stroke-linecap:butt;stroke-linejoin:miter;stroke-miterlimit:10;stroke-dasharray:none;stroke-opacity:1"
             id="path332" /></g><g
           id="g334"
           transform="translate(283.1699,335.5356)"><path
             d="m 0,0 c 8.974,5.181 16.248,0.981 16.248,-9.381 0,-10.362 -7.274,-22.961 -16.248,-28.142 -8.974,-5.182 -16.248,-0.981 -16.248,9.38 0,10.362 7.274,22.962 16.248,28.143"
             style="fill:#00dfbf;fill-opacity:1;fill-rule:nonzero;stroke:none"
             id="path336" /></g><g
           id="g338"
           transform="translate(283.1699,327.3809)"><path
             d="m 0,0 c 2.911,1.681 5.271,0.318 5.271,-3.043 0,-3.362 -2.36,-7.45 -5.271,-9.13 -2.911,-1.681 -5.271,-0.319 -5.271,3.043 0,3.362 2.36,7.449 5.271,9.13"
             style="fill:#00dfbf;fill-opacity:1;fill-rule:nonzero;stroke:none"
             id="path340" /></g><g
           id="g342"
           transform="translate(293.4443,309.4561)"><path
             d="m 0,0 c 0,5.523 -3.878,7.762 -8.66,5 l -2.99,-1.726 c -4.783,-2.761 -8.661,-9.477 -8.661,-15 v -1.486 c 2.765,-0.918 6.246,-0.421 10.037,1.768 C -6.376,-9.193 -2.8,-5.54 0,-1.281 Z"
             style="fill:#00dfbf;fill-opacity:1;fill-rule:nonzero;stroke:none"
             id="path344" /></g><g
           id="g346"><g
             id="g348" /><g
             id="g360"><g
               clip-path="url(#clipPath352)"
               opacity="0.699997"
               id="g358"><g
                 transform="translate(283.1699,327.3809)"
                 id="g356"><path
                   d="m 0,0 c 2.911,1.681 5.271,0.318 5.271,-3.043 0,-3.362 -2.36,-7.45 -5.271,-9.13 -2.911,-1.681 -5.271,-0.319 -5.271,3.043 0,3.362 2.36,7.449 5.271,9.13"
                   style="fill:#ffffff;fill-opacity:1;fill-rule:nonzero;stroke:none"
                   id="path354" /></g></g></g></g><g
           id="g362"><g
             id="g364" /><g
             id="g376"><g
               clip-path="url(#clipPath368)"
               opacity="0.699997"
               id="g374"><g
                 transform="translate(293.4443,309.4561)"
                 id="g372"><path
                   d="m 0,0 c 0,5.523 -3.878,7.762 -8.66,5 l -2.99,-1.726 c -4.783,-2.761 -8.661,-9.477 -8.661,-15 v -1.486 c 2.765,-0.918 6.246,-0.421 10.037,1.768 C -6.376,-9.193 -2.8,-5.54 0,-1.281 Z"
                   style="fill:#ffffff;fill-opacity:1;fill-rule:nonzero;stroke:none"
                   id="path370" /></g></g></g></g><g
           id="g378"
           transform="translate(251.7314,275.1611)"><path
             d="m 0,0 20.908,12.071 c 0.957,0.553 1.733,0.105 1.733,-1 v -0.69 c 0,-1.105 -0.776,-2.448 -1.733,-3 L 0,-4.69 c -0.956,-0.553 -1.732,-0.105 -1.732,1 V -3 c 0,1.104 0.776,2.448 1.732,3"
             style="fill:#00dfbf;fill-opacity:1;fill-rule:nonzero;stroke:none"
             id="path380" /></g><g
           id="g382"><g
             id="g384" /><g
             id="g396"><g
               clip-path="url(#clipPath388)"
               opacity="0.100006"
               id="g394"><g
                 transform="translate(251.7314,275.1611)"
                 id="g392"><path
                   d="m 0,0 20.908,12.071 c 0.957,0.553 1.733,0.105 1.733,-1 v -0.69 c 0,-1.105 -0.776,-2.448 -1.733,-3 L 0,-4.69 c -0.956,-0.553 -1.732,-0.105 -1.732,1 V -3 c 0,1.104 0.776,2.448 1.732,3"
                   style="fill:#000000;fill-opacity:1;fill-rule:nonzero;stroke:none"
                   id="path390" /></g></g></g></g><g
           id="g398"
           transform="translate(250.8657,260.5898)"><path
             d="m 0,0 63.26,36.523 c 0.479,0.276 0.866,0.053 0.866,-0.5 v -7.381 c 0,-0.552 -0.387,-1.224 -0.866,-1.5 L 0,-9.381 c -0.478,-0.276 -0.866,-0.053 -0.866,0.5 V -1.5 c 0,0.552 0.388,1.224 0.866,1.5"
             style="fill:#00dfbf;fill-opacity:1;fill-rule:nonzero;stroke:none"
             id="path400" /></g><g
           id="g402"><g
             id="g404" /><g
             id="g416"><g
               clip-path="url(#clipPath408)"
               opacity="0.199997"
               id="g414"><g
                 transform="translate(250.8657,260.5898)"
                 id="g412"><path
                   d="m 0,0 63.26,36.523 c 0.479,0.276 0.866,0.053 0.866,-0.5 v -7.381 c 0,-0.552 -0.387,-1.224 -0.866,-1.5 L 0,-9.381 c -0.478,-0.276 -0.866,-0.053 -0.866,0.5 V -1.5 c 0,0.552 0.388,1.224 0.866,1.5"
                   style="fill:#ffffff;fill-opacity:1;fill-rule:nonzero;stroke:none"
                   id="path410" /></g></g></g></g><g
           id="g418"
           transform="translate(251.7314,242.3281)"><path
             d="m 0,0 20.908,12.071 c 0.957,0.553 1.733,0.105 1.733,-1 v -0.69 c 0,-1.105 -0.776,-2.448 -1.733,-3 L 0,-4.69 c -0.956,-0.553 -1.732,-0.105 -1.732,1 V -3 c 0,1.104 0.776,2.447 1.732,3"
             style="fill:#00dfbf;fill-opacity:1;fill-rule:nonzero;stroke:none"
             id="path420" /></g><g
           id="g422"><g
             id="g424" /><g
             id="g436"><g
               clip-path="url(#clipPath428)"
               opacity="0.100006"
               id="g434"><g
                 transform="translate(251.7314,242.3281)"
                 id="g432"><path
                   d="m 0,0 20.908,12.071 c 0.957,0.553 1.733,0.105 1.733,-1 v -0.69 c 0,-1.105 -0.776,-2.448 -1.733,-3 L 0,-4.69 c -0.956,-0.553 -1.732,-0.105 -1.732,1 V -3 c 0,1.104 0.776,2.447 1.732,3"
                   style="fill:#000000;fill-opacity:1;fill-rule:nonzero;stroke:none"
                   id="path430" /></g></g></g></g><g
           id="g438"
           transform="translate(250.8657,227.7568)"><path
             d="m 0,0 63.26,36.523 c 0.479,0.276 0.866,0.053 0.866,-0.5 v -7.38 c 0,-0.553 -0.387,-1.225 -0.866,-1.5 L 0,-9.381 c -0.478,-0.276 -0.866,-0.053 -0.866,0.5 V -1.5 c 0,0.552 0.388,1.224 0.866,1.5"
             style="fill:#00dfbf;fill-opacity:1;fill-rule:nonzero;stroke:none"
             id="path440" /></g><g
           id="g442"><g
             id="g444" /><g
             id="g456"><g
               clip-path="url(#clipPath448)"
               opacity="0.199997"
               id="g454"><g
                 transform="translate(250.8657,227.7568)"
                 id="g452"><path
                   d="m 0,0 63.26,36.523 c 0.479,0.276 0.866,0.053 0.866,-0.5 v -7.38 c 0,-0.553 -0.387,-1.225 -0.866,-1.5 L 0,-9.381 c -0.478,-0.276 -0.866,-0.053 -0.866,0.5 V -1.5 c 0,0.552 0.388,1.224 0.866,1.5"
                   style="fill:#ffffff;fill-opacity:1;fill-rule:nonzero;stroke:none"
                   id="path450" /></g></g></g></g><g
           id="g458"
           transform="translate(276.1045,223.5664)"><path
             d="m 0,0 24.97,14.416 c 0.957,0.553 1.732,0.105 1.732,-1 V 5.69 c 0,-1.104 -0.775,-2.448 -1.732,-3 L 0,-11.727 c -0.957,-0.551 -1.732,-0.104 -1.732,1 V -3 c 0,1.104 0.775,2.447 1.732,3"
             style="fill:#00dfbf;fill-opacity:1;fill-rule:nonzero;stroke:none"
             id="path460" /></g><g
           id="g462"><g
             id="g464" /><g
             id="g476"><g
               clip-path="url(#clipPath468)"
               opacity="0.100006"
               id="g474"><g
                 transform="translate(276.1045,223.5664)"
                 id="g472"><path
                   d="m 0,0 24.97,14.416 c 0.957,0.553 1.732,0.105 1.732,-1 V 5.69 c 0,-1.104 -0.775,-2.448 -1.732,-3 L 0,-11.727 c -0.957,-0.551 -1.732,-0.104 -1.732,1 V -3 c 0,1.104 0.775,2.447 1.732,3"
                   style="fill:#000000;fill-opacity:1;fill-rule:nonzero;stroke:none"
                   id="path470" /></g></g></g></g></g></g><g
       id="g478"><g
         id="g480"
         clip-path="url(#clipPath484)"><g
           id="g486"
           transform="translate(335.3027,256.1455)"><path
             d="m 0,0 c 0,0 -12.285,16.947 -13.034,18.963 -0.566,1.52 0.039,3.782 0.179,4.832 0.14,1.051 0.343,3.39 0.518,4.041 0.306,1.136 -1.167,0.904 -1.993,-0.129 -0.846,-1.059 -1.117,-3.124 -1.538,-3.464 -0.42,-0.339 -3.703,4.429 -5.416,6.636 -1.712,2.208 -2.783,3.537 -3.824,2.719 -0.75,-0.589 -0.192,-1.875 1.049,-3.754 1.242,-1.879 1.792,-2.75 1.979,-3.154 0.187,-0.403 -0.834,-0.436 -1.385,-1.284 -0.43,-0.662 -0.029,-1.733 -0.598,-2.244 -0.571,-0.511 -1.102,-1.43 -0.477,-2.466 0.796,-1.319 2.393,-3.204 4.229,-4.477 1.837,-1.273 2.582,-1.72 3.665,-3.452 1.083,-1.731 10.872,-19.403 11.529,-20.463 0.656,-1.061 1.932,-3.221 3.863,-3.283 1.932,-0.062 17.728,13.54 18.542,14.219 2.604,2.171 3.425,2.489 3.874,0.533 0.141,-0.611 0.233,-1.309 0.331,-2.098 0.313,-2.476 1.999,-11.337 1.999,-11.337 0,0 7.99,-3.872 14.569,-1.964 6.579,1.908 8.785,4.657 8.785,4.657 l -3.291,5.363 c 0.896,2.215 5.034,11.169 6.333,17.443 l -20.6,3.326 c -0.423,0.092 -1.098,0.262 -1.96,0.489 -1.131,0.298 -3.974,1.296 -6.167,-0.61 C 14.072,12.876 0,0 0,0"
             style="fill:#ffaaa8;fill-opacity:1;fill-rule:nonzero;stroke:none"
             id="path488" /></g><g
           id="g490"
           transform="translate(376.1436,152.208)"><path
             d="m 0,0 -3.693,-5.132 c 0,0 1.711,-1.003 5.364,-1.141 3.305,-0.126 4.213,0.959 4.335,1.219 0.557,1.197 -0.313,3.356 -0.552,5.211 z"
             style="fill:#2b454e;fill-opacity:1;fill-rule:nonzero;stroke:none"
             id="path492" /></g><g
           id="g494"
           transform="translate(372.6582,149.54)"><path
             d="m 0,0 c 0,0 -4.475,0.285 -7.569,0.675 -3.095,0.39 -5.543,-1.12 -4.815,-2.395 0.728,-1.273 2.43,-2.333 5.081,-3.224 2.273,-0.765 4.995,-1.321 7.367,-2.031 2.431,-0.727 3.988,-1.56 5.365,-1.087 1.535,0.53 2.194,1.143 2.063,2.261 -0.13,1.118 -1.243,4.718 -1.243,4.718 z"
             style="fill:#2b454e;fill-opacity:1;fill-rule:nonzero;stroke:none"
             id="path496" /></g><g
           id="g498"
           transform="translate(382.1494,157.3643)"><path
             d="m 0,0 c 0,0 -0.56,-4.661 -0.603,-5.662 -0.043,-1 -4.548,-1.321 -5.403,0.506 l -0.14,5.699 z"
             style="fill:#ff9090;fill-opacity:1;fill-rule:nonzero;stroke:none"
             id="path500" /></g><g
           id="g502"
           transform="translate(377.6055,154.4961)"><path
             d="m 0,0 1.612,-7.071 c 0,0 0.153,-0.863 -3.532,-1.411 -3.684,-0.55 -9.459,1.926 -10.442,2.429 -0.984,0.504 -1.101,1.505 2.516,1.305 3.617,-0.201 4.899,-0.208 4.899,-0.208 l -1.174,3.135 z"
             style="fill:#ffaaa8;fill-opacity:1;fill-rule:nonzero;stroke:none"
             id="path504" /></g><g
           id="g506"
           transform="translate(385.1904,271.9829)"><path
             d="m 0,0 2.546,0.703 c 0,0 5.335,-16.867 5.925,-18.491 0.59,-1.625 1.255,-3.357 0.107,-5.367 C 7.211,-25.547 0,-35.178 0,-35.178 l -4.577,4.479 5.192,9.514 -4.593,9.306 z"
             style="fill:#ff9090;fill-opacity:1;fill-rule:nonzero;stroke:none"
             id="path508" /></g><g
           id="g510"
           transform="translate(358.9727,293.9072)"><path
             d="m 0,0 c 0,0 -2.042,3.268 0.108,7.27 2.535,4.714 8.201,7.015 14.944,6.133 3.115,-0.408 6.792,-2.965 8.808,-6.87 2.216,-4.288 2.423,-12.931 2.973,-16.2 z"
             style="fill:#2b454e;fill-opacity:1;fill-rule:nonzero;stroke:none"
             id="path512" /></g><g
           id="g514"
           transform="translate(358.8193,292.0615)"><path
             d="M 0,0 C 0,0 -1.602,-3.05 -1.324,-3.328 -1.047,-3.605 0.021,-3.83 0.021,-3.83 Z"
             style="fill:#ffaaa8;fill-opacity:1;fill-rule:nonzero;stroke:none"
             id="path516" /></g><g
           id="g518"
           transform="translate(363.6807,301.7046)"><path
             d="m 0,0 c -1.742,-1.136 -4.741,-3.212 -4.873,-10.066 -0.135,-7.037 0.859,-9.305 1.899,-10.12 0.703,-0.55 4.809,-0.272 6.573,0.143 1.763,0.414 6.835,2.919 8.66,6.729 2.146,4.481 1.712,11.043 -1.483,12.948 C 6.281,2.315 1.475,0.961 0,0"
             style="fill:#ffaaa8;fill-opacity:1;fill-rule:nonzero;stroke:none"
             id="path520" /></g><g
           id="g522"
           transform="translate(382.1484,249.1763)"><path
             d="m 0,0 c 3.084,-4.799 6.016,-9.026 6.641,-14.419 1.32,-11.39 -3.013,-24.412 -3.932,-32.833 0,0 2.91,-3.784 2.907,-8.229 -0.002,-3.48 -5.615,-36.331 -5.615,-36.331 0,0 -4.083,-1.244 -6.146,0.543 l -3.858,60.434 2.032,7.357 z"
             style="fill:#00dfbf;fill-opacity:1;fill-rule:nonzero;stroke:none"
             id="path524" /></g><g
           id="g526"><g
             id="g528" /><g
             id="g540"><g
               clip-path="url(#clipPath532)"
               opacity="0.199997"
               id="g538"><g
                 transform="translate(382.1484,249.1763)"
                 id="g536"><path
                   d="m 0,0 c 3.084,-4.799 6.016,-9.026 6.641,-14.419 1.32,-11.39 -3.013,-24.412 -3.932,-32.833 0,0 2.91,-3.784 2.907,-8.229 -0.002,-3.48 -5.615,-36.331 -5.615,-36.331 0,0 -4.083,-1.244 -6.146,0.543 l -3.858,60.434 2.032,7.357 z"
                   style="fill:#000000;fill-opacity:1;fill-rule:nonzero;stroke:none"
                   id="path534" /></g></g></g></g><g
           id="g542"
           transform="translate(372.1455,218.3408)"><path
             d="m 0,0 2.032,7.357 c 0,0 5.634,1.362 11.013,4.369 0,0 -2.085,-3.787 -8.056,-5.863 L 1.879,-3.595 1.611,-25.238 Z"
             style="fill:#00dfbf;fill-opacity:1;fill-rule:nonzero;stroke:none"
             id="path544" /></g><g
           id="g546"><g
             id="g548" /><g
             id="g560"><g
               clip-path="url(#clipPath552)"
               opacity="0.300003"
               id="g558"><g
                 transform="translate(372.1455,218.3408)"
                 id="g556"><path
                   d="m 0,0 2.032,7.357 c 0,0 5.634,1.362 11.013,4.369 0,0 -2.085,-3.787 -8.056,-5.863 L 1.879,-3.595 1.611,-25.238 Z"
                   style="fill:#000000;fill-opacity:1;fill-rule:nonzero;stroke:none"
                   id="path554" /></g></g></g></g><g
           id="g562"
           transform="translate(382.1484,249.1763)"><path
             d="M 0,0 C 1.65,-2.693 5.594,-7.298 4.756,-11.723 3.739,-17.085 0.854,-20.854 -7.971,-23.478 l -8.277,-29.976 c 0,0 4.31,-4.033 5.628,-7.87 1.316,-3.836 6.077,-33.356 6.077,-33.356 0,0 -1.472,-2.403 -6.121,-1.821 0,0 -16.21,37.024 -17.356,39.408 -1.144,2.384 -1.886,4.166 -1.372,8.049 0.516,3.881 6.038,46.351 6.038,46.351 z"
             style="fill:#00dfbf;fill-opacity:1;fill-rule:nonzero;stroke:none"
             id="path564" /></g><g
           id="g566"><g
             id="g568" /><g
             id="g580"><g
               clip-path="url(#clipPath572)"
               opacity="0.199997"
               id="g578"><g
                 transform="translate(382.1484,249.1763)"
                 id="g576"><path
                   d="M 0,0 C 1.65,-2.693 5.594,-7.298 4.756,-11.723 3.739,-17.085 0.854,-20.854 -7.971,-23.478 l -8.277,-29.976 c 0,0 4.31,-4.033 5.628,-7.87 1.316,-3.836 6.077,-33.356 6.077,-33.356 0,0 -1.472,-2.403 -6.121,-1.821 0,0 -16.21,37.024 -17.356,39.408 -1.144,2.384 -1.886,4.166 -1.372,8.049 0.516,3.881 6.038,46.351 6.038,46.351 z"
                   style="fill:#000000;fill-opacity:1;fill-rule:nonzero;stroke:none"
                   id="path574" /></g></g></g></g><g
           id="g582"
           transform="translate(385.1904,271.9829)"><path
             d="m 0,0 -20.6,3.326 c -0.421,0.092 -1.102,0.263 -1.962,0.489 l -0.002,10e-4 c 0,0 -0.878,-12.916 -6.162,-15.88 h -0.001 c 0.125,-0.616 0.234,-1.309 0.332,-2.098 0.313,-2.476 1.999,-11.338 1.999,-11.338 0,0 7.991,-3.872 14.569,-1.963 6.579,1.908 8.785,4.656 8.785,4.656 l -3.291,5.364 C -5.437,-15.229 -1.299,-6.275 0,0"
             style="fill:#00dfbf;fill-opacity:1;fill-rule:nonzero;stroke:none"
             id="path584" /></g><g
           id="g586"><g
             id="g588" /><g
             id="g600"><g
               clip-path="url(#clipPath592)"
               opacity="0.699997"
               id="g598"><g
                 transform="translate(385.1904,271.9829)"
                 id="g596"><path
                   d="m 0,0 -20.6,3.326 c -0.421,0.092 -1.102,0.263 -1.962,0.489 l -0.002,10e-4 c 0,0 -0.878,-12.916 -6.162,-15.88 h -0.001 c 0.125,-0.616 0.234,-1.309 0.332,-2.098 0.313,-2.476 1.999,-11.338 1.999,-11.338 0,0 7.991,-3.872 14.569,-1.963 6.579,1.908 8.785,4.656 8.785,4.656 l -3.291,5.364 C -5.437,-15.229 -1.299,-6.275 0,0"
                   style="fill:#ffffff;fill-opacity:1;fill-rule:nonzero;stroke:none"
                   id="path594" /></g></g></g></g><g
           id="g602"
           transform="translate(379.7559,256.6489)"><path
             d="m 0,0 c -0.084,-0.194 -6.622,-3.697 -8.564,-4.233 3.062,0.151 5.607,0.871 7.666,2.124 z"
             style="fill:#00dfbf;fill-opacity:1;fill-rule:nonzero;stroke:none"
             id="path604" /></g><g
           id="g606"
           transform="translate(363.167,301.3594)"><path
             d="m 0,0 c 0,0 -0.96,-6.503 1.365,-10.317 0,0 0.873,2.588 3.072,2.094 2.214,-0.498 2.307,-3.373 0.77,-5.003 -1.538,-1.63 -3.249,-1.041 -3.249,-1.041 0,0 -0.346,-4.7 -0.531,-8.641 -0.179,-3.797 -1.239,-12.528 3.196,-16.039 4.435,-3.511 15.549,-4.696 20.758,2.586 2.898,4.051 -0.952,11.213 -2.742,19.242 C 20.992,-9.736 20.065,1.206 12.231,2.961 4.398,4.716 0,0 0,0"
             style="fill:#2b454e;fill-opacity:1;fill-rule:nonzero;stroke:none"
             id="path608" /></g></g></g><g
       id="g610"><g
         id="g612"
         clip-path="url(#clipPath616)"><g
           id="g618"
           transform="translate(391.9033,390.1748)"><path
             d="m 0,0 -1.651,-0.954 c 0.131,0.608 0.225,1.212 0.225,1.792 0,3.346 -2.348,4.702 -5.246,3.029 -0.843,-0.487 -1.627,-1.19 -2.333,-2.005 0,0.008 0.001,0.016 0.001,0.025 0,4.503 -3.161,6.329 -7.061,4.077 -3.901,-2.252 -7.063,-7.728 -7.063,-12.232 0,-0.23 0.014,-0.447 0.03,-0.662 -0.825,0.147 -1.809,-0.055 -2.869,-0.667 -2.897,-1.673 -5.246,-5.74 -5.246,-9.086 0,-0.461 0.049,-0.879 0.133,-1.261 l -0.88,-0.508 c -2.392,-1.381 -4.33,-4.075 -4.33,-6.018 0,-1.943 1.938,-2.398 4.33,-1.018 L 0,-7.036 C 2.392,-5.655 4.33,-2.96 4.33,-1.018 4.33,0.925 2.392,1.381 0,0"
             style="fill:#ececec;fill-opacity:1;fill-rule:nonzero;stroke:none"
             id="path620" /></g></g></g></g></svg>
