<?xml version="1.0" encoding="iso-8859-1"?>
<!-- Generator: Adobe Illustrator 19.0.0, SVG Export Plug-In . SVG Version: 6.00 Build 0)  -->
<svg version="1.1" id="Layer_1" xmlns="http://www.w3.org/2000/svg" xmlns:xlink="http://www.w3.org/1999/xlink" x="0px" y="0px"
	 viewBox="0 0 512 512" style="enable-background:new 0 0 512 512;" xml:space="preserve">
<path style="fill:#FF675C;" d="M512,12.8c0-5.891-4.775-10.667-10.667-10.667H10.667C4.775,2.133,0,6.909,0,12.8v456.533
	C0,475.225,4.775,480,10.667,480h198.791c8.091,17.622,25.881,29.867,46.542,29.867c20.66,0,38.45-12.244,46.542-29.867h198.792
	c5.891,0,10.667-4.775,10.667-10.667V12.8z"/>
<path style="fill:#9FD25A;" d="M512,12.8c0-5.891-4.775-10.667-10.667-10.667H10.667C4.775,2.133,0,6.909,0,12.8v456.533
	C0,475.225,4.775,480,10.667,480h198.791c8.091,17.622,25.881,29.867,46.542,29.867c20.66,0,38.45-12.244,46.542-29.867h198.792
	c5.891,0,10.667-4.775,10.667-10.667V12.8z"/>
<path style="fill:#6EAD32;" d="M293.991,458.667c-3.126,0-5.966,1.821-7.27,4.662l-3.567,7.77
	c-4.863,10.591-15.522,17.435-27.154,17.435c-11.632,0-22.291-6.844-27.154-17.436l-3.568-7.77c-1.305-2.841-4.144-4.661-7.27-4.661
	H0v10.667C0,475.225,4.775,480,10.667,480h198.791c8.091,17.622,25.881,29.867,46.542,29.867c20.66,0,38.45-12.244,46.542-29.867
	h198.792c5.891,0,10.667-4.775,10.667-10.667v-10.667H293.991z"/>
<path style="fill:#E0DDDF;" d="M482.133,2.133H256H28.8c-5.891,0-10.667,4.775-10.667,10.667v418.667c0,4.418,3.582,8,8,8H484.8
	c4.418,0,8-3.582,8-8V12.8C492.8,6.909,488.025,2.133,482.133,2.133z"/>
<path style="fill:#F9F8F9;" d="M492.8,12.8c0-5.891-4.775-10.667-10.667-10.667H256.355V352H492.8V12.8z"/>
<path style="fill:#FFFFFF;" d="M256,2.133H28.8c-5.891,0-10.667,4.775-10.667,10.667V352H256l0.355-349.867H256z"/>
<rect x="247.467" y="2.133" style="fill:#C1BCBF;" width="17.067" height="437.333"/>
<path style="fill:#E0DDDF;" d="M445.867,352l46.933-46.933h-38.933c-4.418,0-8,3.582-8,8V352z"/>
<g>
	<path style="fill:#C1BCBF;" d="M221.867,390.933h-131.2c-4.418,0-8-3.581-8-8c0-4.419,3.582-8,8-8h131.2c4.418,0,8,3.581,8,8
		C229.867,387.353,226.285,390.933,221.867,390.933z"/>
	<path style="fill:#C1BCBF;" d="M421.333,390.933H291.2c-4.419,0-8-3.581-8-8c0-4.419,3.581-8,8-8h130.133c4.419,0,8,3.581,8,8
		C429.333,387.353,425.753,390.933,421.333,390.933z"/>
	<path style="fill:#C1BCBF;" d="M221.867,419.733h-131.2c-4.418,0-8-3.581-8-8c0-4.419,3.582-8,8-8h131.2c4.418,0,8,3.581,8,8
		C229.867,416.153,226.285,419.733,221.867,419.733z"/>
	<path style="fill:#C1BCBF;" d="M421.333,419.733H291.2c-4.419,0-8-3.581-8-8c0-4.419,3.581-8,8-8h130.133c4.419,0,8,3.581,8,8
		C429.333,416.153,425.753,419.733,421.333,419.733z"/>
</g>
<g>
	<path style="fill:#5293C4;" d="M422.4,125.333h-85.333c-4.419,0-8-3.581-8-8c0-4.419,3.581-8,8-8H422.4c4.419,0,8,3.581,8,8
		C430.4,121.753,426.819,125.333,422.4,125.333z"/>
	<path style="fill:#5293C4;" d="M422.4,193.6h-85.333c-4.419,0-8-3.581-8-8s3.581-8,8-8H422.4c4.419,0,8,3.581,8,8
		S426.819,193.6,422.4,193.6z"/>
	<path style="fill:#5293C4;" d="M422.4,261.867h-85.333c-4.419,0-8-3.581-8-8s3.581-8,8-8H422.4c4.419,0,8,3.581,8,8
		S426.819,261.867,422.4,261.867z"/>
</g>
<g>
	<path style="fill:#FBC96C;" d="M227.069,307.523l-22.123-18.939v-39.972l22.619-22.961c3.101-3.148,3.063-8.213-0.085-11.313
		c-3.149-3.103-8.214-3.061-11.313,0.084l-20.019,20.322l-33.779-19.503c-2.475-1.429-5.525-1.429-8,0l-38.577,22.273
		c-2.475,1.429-4,4.069-4,6.928v44.545c0,2.859,1.525,5.499,4,6.928l34.075,19.674V326.4c0,4.419,3.582,8,8,8s8-3.581,8-8v-10.23
		l27.89-16.102l22.907,19.611c1.508,1.292,3.358,1.923,5.199,1.923c2.256,0,4.498-0.949,6.081-2.798
		C230.817,315.445,230.426,310.396,227.069,307.523z M188.947,284.369l-30.578,17.654l-30.577-17.654v-35.308l30.577-17.654
		l30.578,17.654V284.369z"/>
	<path style="fill:#FBC96C;" d="M141.481,248.303c-4.418,0-8,3.581-8,8v21.333c0,4.419,3.582,8,8,8c4.418,0,8-3.581,8-8v-21.333
		C149.481,251.885,145.899,248.303,141.481,248.303z"/>
</g>
<g>
	<path style="fill:#5CC4E0;" d="M140.533,152.387l-38.578-22.273c-2.475-1.429-5.525-1.429-8,0l-31.387,18.122l-22.907-19.611
		c-3.357-2.874-8.405-2.482-11.28,0.875c-2.874,3.356-2.482,8.406,0.875,11.279l22.123,18.939v39.972l-22.619,22.961
		c-3.101,3.148-3.063,8.213,0.085,11.313c1.558,1.535,3.586,2.301,5.614,2.301c2.067,0,4.134-0.797,5.699-2.385l20.019-20.322
		l33.778,19.503c1.237,0.715,2.619,1.072,4,1.072c1.381,0,2.763-0.357,4-1.072l38.578-22.273c2.475-1.429,4-4.069,4-6.928v-44.545
		C144.533,156.458,143.008,153.817,140.533,152.387z M128.533,199.242l-30.578,17.654l-30.577-17.654v-35.308l30.577-17.654
		l30.578,17.654V199.242z"/>
	<path style="fill:#5CC4E0;" d="M114.845,200c4.418,0,8-3.581,8-8v-21.333c0-4.419-3.582-8-8-8c-4.418,0-8,3.581-8,8V192
		C106.845,196.419,110.427,200,114.845,200z"/>
</g>
<g>
	<path style="fill:#F78B4F;" d="M227.566,137.015l-22.619-22.961V74.082l22.123-18.939c3.356-2.873,3.748-7.923,0.875-11.279
		c-2.873-3.357-7.924-3.748-11.28-0.875l-22.907,19.611l-27.891-16.103V27.733c0-4.419-3.582-8-8-8c-4.418,0-8,3.581-8,8v19.344
		l-34.075,19.674c-2.475,1.429-4,4.069-4,6.928v44.545c0,2.859,1.525,5.499,4,6.928l38.577,22.273c1.237,0.715,2.619,1.072,4,1.072
		s2.763-0.357,4-1.072l33.779-19.503l20.019,20.322c1.566,1.588,3.632,2.385,5.699,2.385c2.027,0,4.055-0.766,5.614-2.301
		C230.628,145.229,230.667,140.163,227.566,137.015z M188.947,113.605l-30.578,17.654l-30.577-17.654V78.298l30.577-17.654
		l30.578,17.654V113.605z"/>
	<path style="fill:#F78B4F;" d="M141.481,77.03c-4.418,0-8,3.581-8,8v21.333c0,4.419,3.582,8,8,8c4.418,0,8-3.581,8-8V85.03
		C149.481,80.611,145.899,77.03,141.481,77.03z"/>
</g>
<g>
</g>
<g>
</g>
<g>
</g>
<g>
</g>
<g>
</g>
<g>
</g>
<g>
</g>
<g>
</g>
<g>
</g>
<g>
</g>
<g>
</g>
<g>
</g>
<g>
</g>
<g>
</g>
<g>
</g>
</svg>
